<svg width="2015" height="459" viewBox="0 0 2015 459" fill="none" xmlns="http://www.w3.org/2000/svg">
<path d="M182.115 30.1788C189.135 17.5429 209.914 -5.62301 236.871 2.80095L529.604 205.281V262.143V323.217L367.442 218.665L182.115 95.4647V30.1788Z" fill="#E38221" stroke="#E38221"/>
<path d="M165.268 114.724H184.221C282.643 178.946 490.524 315.472 512.756 331.641L439.046 407.457C354.807 342.873 194.751 228.447 165.268 228.447V114.724Z" fill="#E38221" stroke="#E38221"/>
<path d="M169.479 102.089H152.631V238.9C196.799 251.085 258.695 299.795 283.203 308.476C257.23 326.988 195.068 325.631 139.995 295.84C98.5776 269.164 12.7935 210.337 1 188.434V144.208L104.194 70.4987L139.995 57.8628L169.479 64.1808V102.089Z" fill="#1695A4" stroke="#1695A4"/>
<path d="M1 211.599V314.792L247.401 458H283.203C284.607 448.874 282.782 426.41 264.249 409.562L1 211.599Z" fill="#1695A4" stroke="#1695A4"/>
<path d="M793.091 199.728C792.134 190.074 788.025 182.575 780.765 177.229C773.505 171.884 763.652 169.211 751.206 169.211C742.749 169.211 735.608 170.408 729.784 172.801C723.96 175.115 719.492 178.346 716.381 182.495C713.349 186.643 711.833 191.351 711.833 196.616C711.674 201.004 712.591 204.834 714.586 208.105C716.66 211.376 719.492 214.208 723.083 216.602C726.673 218.915 730.821 220.95 735.529 222.705C740.236 224.38 745.262 225.816 750.607 227.013L772.627 232.279C783.318 234.672 793.131 237.864 802.067 241.853C811.003 245.842 818.741 250.748 825.284 256.573C831.826 262.397 836.892 269.258 840.482 277.156C844.152 285.055 846.027 294.11 846.107 304.322C846.027 319.321 842.197 332.326 834.618 343.336C827.119 354.266 816.268 362.763 802.067 368.826C787.946 374.81 770.912 377.802 750.966 377.802C731.18 377.802 713.948 374.77 699.268 368.706C684.667 362.643 673.259 353.667 665.041 341.78C656.903 329.813 652.635 315.013 652.236 297.381H702.379C702.938 305.599 705.291 312.46 709.44 317.965C713.668 323.39 719.293 327.499 726.314 330.291C733.414 333.004 741.432 334.36 750.368 334.36C759.144 334.36 766.763 333.084 773.226 330.531C779.768 327.978 784.834 324.427 788.424 319.88C792.014 315.332 793.81 310.106 793.81 304.203C793.81 298.698 792.174 294.07 788.903 290.32C785.712 286.571 781.004 283.379 774.781 280.747C768.638 278.114 761.099 275.72 752.163 273.566L725.476 266.864C704.812 261.838 688.497 253.98 676.53 243.289C664.562 232.598 658.619 218.197 658.698 200.087C658.619 185.247 662.568 172.283 670.546 161.193C678.604 150.103 689.654 141.447 703.696 135.224C717.737 129.001 733.694 125.889 751.565 125.889C769.755 125.889 785.632 129.001 799.195 135.224C812.838 141.447 823.449 150.103 831.028 161.193C838.607 172.283 842.517 185.128 842.756 199.728H793.091ZM963.775 377.921C944.867 377.921 928.592 374.092 914.949 366.433C901.386 358.694 890.934 347.764 883.594 333.642C876.254 319.441 872.584 302.647 872.584 283.26C872.584 264.351 876.254 247.757 883.594 233.476C890.934 219.195 901.266 208.065 914.59 200.087C927.993 192.109 943.71 188.119 961.741 188.119C973.868 188.119 985.157 190.074 995.609 193.983C1006.14 197.813 1015.31 203.597 1023.13 211.336C1031.03 219.075 1037.18 228.808 1041.56 240.536C1045.95 252.185 1048.15 265.827 1048.15 281.465V295.466H892.929V263.873H1000.16C1000.16 256.533 998.561 250.03 995.369 244.366C992.178 238.701 987.75 234.273 982.086 231.082C976.501 227.811 969.999 226.176 962.579 226.176C954.84 226.176 947.979 227.971 941.995 231.561C936.091 235.071 931.464 239.818 928.113 245.802C924.762 251.706 923.047 258.288 922.967 265.548V295.586C922.967 304.681 924.642 312.54 927.993 319.162C931.424 325.784 936.251 330.89 942.474 334.48C948.697 338.07 956.077 339.865 964.613 339.865C970.278 339.865 975.464 339.067 980.171 337.472C984.878 335.876 988.907 333.483 992.258 330.291C995.609 327.1 998.162 323.191 999.917 318.563L1047.07 321.675C1044.67 333.004 1039.77 342.897 1032.35 351.354C1025.01 359.731 1015.51 366.273 1003.87 370.98C992.298 375.608 978.934 377.921 963.775 377.921ZM1132.4 129.24V374.331H1081.41V129.24H1132.4Z" fill="#1695A4"/>
<path d="M1277.35 374.331V129.24H1307.03V348.003H1420.96V374.331H1277.35ZM1517.17 378.639C1505.53 378.639 1494.96 376.445 1485.46 372.057C1475.97 367.589 1468.43 361.167 1462.84 352.79C1457.26 344.333 1454.47 334.121 1454.47 322.153C1454.47 311.622 1456.54 303.086 1460.69 296.543C1464.84 289.921 1470.38 284.736 1477.32 280.986C1484.26 277.236 1491.92 274.444 1500.3 272.609C1508.76 270.694 1517.25 269.178 1525.79 268.061C1536.96 266.625 1546.02 265.548 1552.96 264.83C1559.98 264.032 1565.08 262.716 1568.28 260.881C1571.55 259.046 1573.18 255.854 1573.18 251.307V250.35C1573.18 238.542 1569.95 229.367 1563.49 222.825C1557.11 216.283 1547.41 213.011 1534.41 213.011C1520.92 213.011 1510.35 215.963 1502.69 221.867C1495.04 227.771 1489.65 234.074 1486.54 240.776L1459.73 231.202C1464.52 220.032 1470.9 211.336 1478.88 205.113C1486.94 198.81 1495.71 194.422 1505.21 191.949C1514.78 189.396 1524.2 188.119 1533.45 188.119C1539.35 188.119 1546.14 188.837 1553.79 190.274C1561.53 191.63 1568.99 194.462 1576.17 198.77C1583.43 203.079 1589.46 209.581 1594.24 218.277C1599.03 226.973 1601.42 238.622 1601.42 253.222V374.331H1573.18V349.439H1571.75C1569.83 353.428 1566.64 357.696 1562.17 362.244C1557.7 366.792 1551.76 370.661 1544.34 373.852C1536.92 377.044 1527.87 378.639 1517.17 378.639ZM1521.48 353.269C1532.65 353.269 1542.07 351.075 1549.73 346.687C1557.46 342.299 1563.29 336.634 1567.2 329.693C1571.19 322.752 1573.18 315.452 1573.18 307.793V281.943C1571.99 283.379 1569.35 284.696 1565.28 285.892C1561.29 287.009 1556.67 288.007 1551.4 288.884C1546.22 289.682 1541.15 290.4 1536.2 291.038C1531.34 291.597 1527.39 292.076 1524.36 292.475C1517.02 293.432 1510.15 294.988 1503.77 297.142C1497.47 299.216 1492.36 302.368 1488.45 306.596C1484.62 310.745 1482.71 316.409 1482.71 323.59C1482.71 333.403 1486.34 340.823 1493.6 345.849C1500.94 350.795 1510.23 353.269 1521.48 353.269ZM1656.8 374.331V129.24H1685.05V219.713H1687.44C1689.51 216.522 1692.39 212.453 1696.06 207.506C1699.81 202.48 1705.15 198.012 1712.09 194.103C1719.11 190.114 1728.61 188.119 1740.57 188.119C1756.05 188.119 1769.7 191.989 1781.5 199.728C1793.31 207.467 1802.53 218.437 1809.15 232.638C1815.77 246.839 1819.08 263.593 1819.08 282.901C1819.08 302.368 1815.77 319.241 1809.15 333.522C1802.53 347.724 1793.35 358.734 1781.62 366.552C1769.89 374.291 1756.37 378.161 1741.05 378.161C1729.25 378.161 1719.79 376.206 1712.69 372.297C1705.59 368.307 1700.13 363.8 1696.3 358.774C1692.47 353.667 1689.51 349.439 1687.44 346.088H1684.09V374.331H1656.8ZM1684.57 282.422C1684.57 296.304 1686.6 308.551 1690.67 319.162C1694.74 329.693 1700.68 337.95 1708.5 343.934C1716.32 349.838 1725.89 352.79 1737.22 352.79C1749.03 352.79 1758.88 349.678 1766.78 343.455C1774.76 337.153 1780.75 328.696 1784.73 318.085C1788.8 307.394 1790.84 295.506 1790.84 282.422C1790.84 269.497 1788.84 257.849 1784.85 247.477C1780.94 237.026 1775 228.768 1767.02 222.705C1759.12 216.562 1749.19 213.49 1737.22 213.49C1725.74 213.49 1716.08 216.402 1708.26 222.226C1700.44 227.971 1694.54 236.029 1690.55 246.4C1686.56 256.692 1684.57 268.699 1684.57 282.422ZM1992.49 231.68L1967.12 238.861C1965.52 234.632 1963.17 230.524 1960.06 226.535C1957.02 222.466 1952.88 219.115 1947.61 216.482C1942.34 213.849 1935.6 212.533 1927.38 212.533C1916.14 212.533 1906.76 215.126 1899.26 220.312C1891.84 225.418 1888.13 231.92 1888.13 239.818C1888.13 246.839 1890.69 252.384 1895.79 256.453C1900.9 260.522 1908.88 263.912 1919.73 266.625L1947.01 273.327C1963.45 277.316 1975.69 283.419 1983.75 291.637C1991.81 299.775 1995.84 310.266 1995.84 323.111C1995.84 333.642 1992.81 343.056 1986.74 351.354C1980.76 359.651 1972.38 366.193 1961.61 370.98C1950.84 375.767 1938.31 378.161 1924.03 378.161C1905.29 378.161 1889.77 374.092 1877.48 365.954C1865.19 357.816 1857.42 345.929 1854.14 330.291L1880.95 323.59C1883.5 333.483 1888.33 340.902 1895.43 345.849C1902.61 350.795 1911.99 353.269 1923.56 353.269C1936.72 353.269 1947.17 350.476 1954.91 344.891C1962.73 339.227 1966.64 332.445 1966.64 324.547C1966.64 318.164 1964.4 312.819 1959.94 308.511C1955.47 304.123 1948.61 300.852 1939.35 298.698L1908.72 291.517C1891.88 287.528 1879.52 281.345 1871.62 272.968C1863.8 264.511 1859.89 253.94 1859.89 241.254C1859.89 230.883 1862.8 221.708 1868.63 213.729C1874.53 205.751 1882.55 199.488 1892.68 194.941C1902.89 190.393 1914.46 188.119 1927.38 188.119C1945.58 188.119 1959.86 192.109 1970.23 200.087C1980.68 208.065 1988.1 218.596 1992.49 231.68Z" fill="#E38221"/>
</svg>
