<svg width="659" height="659" viewBox="0 0 659 659" fill="none" xmlns="http://www.w3.org/2000/svg">
<path d="M329.501 28.3112C155.341 28.3112 14.1562 169.495 14.1562 343.656C14.1562 444.01 61.0392 533.408 134.09 591.162L527.131 589.372C598.906 531.571 644.845 442.984 644.845 343.656C644.845 169.495 503.661 28.3112 329.501 28.3112Z" fill="#49B1F7"/>
<path d="M410.37 452.763H242.885C245.509 454.28 248.534 455.593 251.968 456.691C250.358 460.331 247.929 468.03 251.161 476.566C254.856 486.327 264.69 493.99 280.413 499.373C279.726 499.954 278.971 500.642 278.2 501.422H501.426V498.681L410.37 452.763Z" fill="#FFB332"/>
<path d="M254.731 455.503C251.851 454.698 249.322 453.776 247.101 452.763H97.8926V455.503L188.949 501.422H281.011C282.987 499.656 284.558 498.681 284.558 498.681C237.039 484.235 254.731 455.503 254.731 455.503Z" fill="#FF8F33"/>
<path d="M280.295 230.336L314.882 259.705L324.902 253.92C336.861 247.016 340.959 231.723 334.054 219.764L325.191 204.413L280.295 230.336Z" fill="#BEC8F7"/>
<path d="M426.248 80.9115C430.679 88.5865 441.298 89.7269 447.259 83.1704L455.082 74.5648L452.26 69.6789C449.46 64.8278 443.845 62.3437 438.371 63.5343L418.688 67.8165L426.248 80.9115Z" fill="#DEEEFF"/>
<path d="M454.738 73.9701L446.535 82.994C441.062 89.0138 431.313 87.9661 427.245 80.9205L419.569 67.6246L400.268 71.8232L432.178 127.093L458.408 98.2385C462.175 94.094 462.831 87.9893 460.031 83.1382L454.738 73.9701Z" fill="#BEC8F7"/>
<path d="M561.108 295.183H219.987C216.96 298.271 210.554 305.916 210.896 315.061C211.141 321.589 214.752 327.472 221.63 332.543C242.834 348.177 252.561 369.451 252.794 383.597C252.995 395.791 247.329 406.526 235.953 415.507L235.708 415.702L235.535 415.964C235.199 416.478 227.353 428.674 231.804 440.527C234.257 447.061 239.914 452.079 248.638 455.5H561.108C575.305 455.5 586.814 443.991 586.814 429.794V320.889C586.813 306.692 575.305 295.183 561.108 295.183Z" fill="#FFDD40"/>
<path d="M222.778 295.183H97.8936C83.6968 295.183 72.1875 306.692 72.1875 320.889V429.797C72.1875 443.994 83.6968 455.503 97.8936 455.503H254.73C218.574 445.393 237.151 417.023 237.151 417.023C273.834 388.063 245.196 347.52 222.778 330.99C200.36 314.461 222.778 295.183 222.778 295.183Z" fill="#FFC839"/>
<path d="M501.426 498.682H278.493C279.127 498.913 279.758 499.147 280.413 499.373C276.902 502.343 271.654 507.99 271.257 515.453C270.878 522.55 274.954 529.467 283.372 536.013C307.315 554.63 326.658 577.001 306.248 614.313C298.483 628.508 297.535 640.753 303.436 650.705C305.172 653.634 307.454 656.183 310.083 658.403C316.507 658.792 322.979 659 329.501 659C404.332 659 473.06 632.918 527.131 589.373V524.386C527.131 510.191 515.623 498.682 501.426 498.682Z" fill="#FF4155"/>
<path d="M284.557 498.682H159.796C145.599 498.682 134.09 510.191 134.09 524.388V591.163C183.887 630.532 245.844 655.184 313.407 658.582C302.112 650.439 296.325 636.474 307.94 615.24C328.533 577.592 310.192 554.424 284.555 534.489C258.919 514.554 284.557 498.682 284.557 498.682Z" fill="#E80054"/>
<path d="M408.593 419.695C403.296 419.695 399.004 415.403 399.004 410.106V340.709C399.004 336.513 401.733 332.804 405.739 331.555C409.742 330.307 414.098 331.806 416.484 335.261L447.457 380.113L447.075 340.673C447.023 335.378 451.275 331.043 456.57 330.992C461.852 330.934 466.2 335.192 466.252 340.487L466.902 407.671C466.903 412.849 463.991 417.045 459.486 418.453C455.064 419.836 450.408 418.129 447.627 414.111L418.182 371.469V410.106C418.182 415.403 413.888 419.695 408.593 419.695Z" fill="#4F71B6"/>
<path d="M307.549 419.695C302.748 419.695 298.502 416.645 296.971 412.09C296.933 411.977 296.897 411.863 296.864 411.75L286.575 376.873L280.367 411.267C279.426 416.48 274.433 419.944 269.227 419C264.015 418.06 260.553 413.072 261.494 407.861L273.714 340.155C274.691 335.071 278.889 331.359 283.945 331.02C288.992 330.683 293.658 333.798 295.272 338.601C295.309 338.713 295.345 338.828 295.378 338.941L307.418 379.747L319.023 339.036C319.054 338.925 319.088 338.815 319.123 338.705C320.686 333.889 325.304 330.723 330.366 331.008C335.423 331.293 339.66 334.959 340.672 339.922L353.638 407.764C354.632 412.966 351.221 417.989 346.02 418.982C340.824 419.979 335.795 416.565 334.801 411.364L328.197 376.808L318.265 411.65C318.232 411.762 318.199 411.874 318.163 411.983C316.672 416.572 312.429 419.671 307.605 419.695C307.587 419.695 307.567 419.695 307.549 419.695Z" fill="#4F71B6"/>
<path d="M375.48 419.695C370.183 419.695 365.891 415.403 365.891 410.107V340.579C365.891 335.283 370.183 330.99 375.48 330.99C380.776 330.99 385.069 335.283 385.069 340.579V410.107C385.069 415.403 380.776 419.695 375.48 419.695Z" fill="#4F71B6"/>
<path d="M510.925 419.695C486.468 419.695 466.572 399.799 466.572 375.343C466.572 350.887 486.468 330.99 510.925 330.99C519.811 330.99 528.388 333.612 535.729 338.57C540.118 341.534 541.271 347.496 538.307 351.884C535.343 356.273 529.381 357.426 524.993 354.462C520.836 351.654 515.97 350.168 510.925 350.168C497.043 350.168 485.75 361.462 485.75 375.343C485.75 389.224 497.043 400.518 510.925 400.518C521.993 400.518 527.823 393.49 530.136 384.932H520.137C514.84 384.932 510.548 380.639 510.548 375.343C510.548 370.047 514.84 365.754 520.137 365.754H540.935C546.231 365.754 550.524 370.047 550.524 375.343C550.523 401.457 534.241 419.695 510.925 419.695Z" fill="#4F71B6"/>
<path d="M152.829 419.695C128.374 419.695 108.477 399.799 108.477 375.343C108.477 350.887 128.373 330.99 152.829 330.99C161.717 330.99 170.294 333.612 177.634 338.57C182.023 341.534 183.177 347.496 180.212 351.884C177.248 356.273 171.286 357.426 166.898 354.462C162.741 351.654 157.876 350.168 152.829 350.168C138.948 350.168 127.654 361.462 127.654 375.343C127.654 389.224 138.948 400.518 152.829 400.518C157.923 400.518 162.198 399.012 165.532 396.042C166.183 395.463 166.806 394.82 167.384 394.13C170.788 390.073 176.836 389.544 180.893 392.945C184.95 396.35 185.48 402.398 182.077 406.455C180.906 407.853 179.631 409.167 178.288 410.363C171.433 416.469 162.629 419.695 152.829 419.695Z" fill="#4F71B6"/>
<path d="M222.776 419.695C198.32 419.695 178.424 399.799 178.424 375.343C178.424 350.887 198.32 330.99 222.776 330.99C247.231 330.99 267.129 350.887 267.129 375.343C267.129 399.799 247.233 419.695 222.776 419.695ZM222.776 350.168C208.895 350.168 197.602 361.462 197.602 375.343C197.602 389.224 208.895 400.518 222.776 400.518C236.658 400.518 247.951 389.224 247.951 375.343C247.951 361.462 236.658 350.168 222.776 350.168Z" fill="#4F71B6"/>
<path d="M425.648 623.193C420.351 623.193 416.059 618.9 416.059 613.604V544.207C416.059 540.011 418.787 536.301 422.794 535.053C426.8 533.804 431.154 535.304 433.539 538.758L464.513 583.609L464.132 544.169C464.081 538.873 468.332 534.539 473.627 534.488C478.942 534.428 483.257 538.687 483.309 543.983L483.959 611.167C483.96 616.346 481.049 620.541 476.544 621.949C472.122 623.33 467.468 621.625 464.684 617.606L435.238 574.967V613.604C435.237 618.9 430.944 623.193 425.648 623.193Z" fill="#DEEEFF"/>
<path d="M211.081 623.193C198.917 623.193 187.497 618.289 179.747 609.737C176.191 605.813 176.49 599.749 180.414 596.193C184.337 592.637 190.402 592.935 193.958 596.86C198.019 601.34 204.42 604.016 211.081 604.016C217.33 604.016 221.713 600.373 222.342 596.851C223.168 592.225 216.012 589.201 213.799 588.385C202.989 584.398 193.388 580.125 192.984 579.944C192.522 579.738 192.078 579.496 191.654 579.221C184.027 574.249 180.097 565.53 181.397 556.466C182.781 546.83 189.812 538.983 199.749 535.99C219.201 530.129 235.201 543.322 235.873 543.886C239.926 547.294 240.451 553.342 237.043 557.397C233.65 561.433 227.639 561.969 223.587 558.612C223.303 558.385 214.592 551.548 205.281 554.353C201.313 555.549 200.533 558.134 200.381 559.191C200.279 559.9 200.225 561.581 201.672 562.817C204.232 563.935 212.05 567.301 220.434 570.394C238.496 577.056 243.014 590.172 241.22 600.223C238.845 613.531 226.168 623.193 211.081 623.193Z" fill="#DEEEFF"/>
<path d="M284.556 623.193C260.101 623.193 240.203 603.296 240.203 578.84C240.203 554.384 260.099 534.488 284.556 534.488C309.012 534.488 328.908 554.384 328.908 578.84C328.908 603.296 309.012 623.193 284.556 623.193ZM284.556 553.665C270.674 553.665 259.381 564.959 259.381 578.84C259.381 592.722 270.674 604.015 284.556 604.015C298.437 604.015 309.73 592.722 309.73 578.84C309.73 564.959 298.437 553.665 284.556 553.665Z" fill="#DEEEFF"/>
<path d="M372.384 623.193C347.927 623.193 328.031 603.296 328.031 578.84C328.031 554.384 347.927 534.488 372.384 534.488C396.84 534.488 416.736 554.384 416.736 578.84C416.738 603.296 396.84 623.193 372.384 623.193ZM372.384 553.665C358.502 553.665 347.209 564.959 347.209 578.84C347.209 592.722 358.502 604.015 372.384 604.015C386.265 604.015 397.558 592.722 397.558 578.84C397.558 564.959 386.265 553.665 372.384 553.665Z" fill="#DEEEFF"/>
<path d="M343.752 280.909L318.227 259.235C308.53 257.052 297.997 260.255 291.257 268.46C284.263 276.977 283.336 288.46 287.921 297.738L312.058 318.234C322.365 326.986 337.815 325.726 346.567 315.419C355.319 305.112 354.059 289.661 343.752 280.909Z" fill="#DEEEFF"/>
<path d="M292.329 269.593C299.384 261.004 310.756 258.086 320.718 261.351L282.927 229.261L253.508 246.247C247.497 249.717 241.05 251.735 234.566 252.433L290.068 299.563C284.604 290.354 285.141 278.346 292.329 269.593Z" fill="#D3DCFB"/>
<path d="M206.687 168.033L259.618 137.474L258.702 135.885C249.406 119.785 228.627 114.217 212.527 123.512L208.928 125.59C192.828 134.885 187.26 155.664 196.555 171.765L198.067 174.385C200.648 172.005 203.518 169.862 206.687 168.033Z" fill="#DEEEFF"/>
<path d="M188.787 233.442C202.216 231.021 211.828 225.785 217.349 217.856C222.341 210.689 222.494 203.395 222.261 200.212L271.551 174.914C277.096 178.136 282.543 179.083 287.759 177.728C294.936 175.862 299.589 170.131 301.506 167.313C302.442 167.636 303.357 167.903 304.278 168.188L278.371 123.315L205.245 165.535C182.161 178.863 174.252 208.382 187.58 231.466C187.966 232.139 188.371 232.796 188.787 233.442Z" fill="#FF4155"/>
<path d="M302.682 165.423C301.992 165.189 301.299 164.951 300.594 164.692C300.594 164.692 290.049 184.081 271.639 172.437L219.941 198.97C219.941 198.97 224.88 225.149 187.578 231.466C200.906 254.55 230.425 262.46 253.509 249.132L326.635 206.912L302.682 165.423Z" fill="#E80054"/>
<path d="M228.694 204.021C225.205 204.021 221.81 202.21 219.94 198.97C217.152 194.141 218.806 187.965 223.636 185.178L256.774 166.045C261.603 163.258 267.778 164.911 270.566 169.74C273.354 174.569 271.7 180.745 266.871 183.533L233.733 202.666C232.145 203.585 230.407 204.021 228.694 204.021Z" fill="#FF7186"/>
<path d="M333.577 170.026C342.646 167.749 349.958 161.442 353.64 152.721C357.434 143.735 356.809 133.755 351.926 125.34L315.027 61.7607L277.123 124.035L302.242 167.543C313.928 171.465 324.465 172.314 333.577 170.026Z" fill="#DEEEFF"/>
<path d="M313.745 63.8664L350.053 126.428C359.375 142.489 351.061 163.406 333.049 167.928C324.802 169.999 314.178 169.671 300.594 164.692L325.386 207.634L437.209 205.043L335.277 28.4915L313.745 63.8664Z" fill="#BEC8F7"/>
<path d="M378.247 27.9122C379.129 35.9476 375.325 44.1194 367.874 48.421C360.029 52.9503 350.494 51.8279 343.92 46.3474L384.473 116.589C391.235 121.965 400.847 122.995 408.782 118.414C415.766 114.381 419.629 107.049 419.59 99.5231L378.247 27.9122Z" fill="#FF4155"/>
<path d="M469.687 186.291L418.541 97.7031C419.241 105.54 415.477 113.441 408.215 117.634C399.964 122.396 389.826 120.869 383.303 114.56L435.96 205.765C441.337 215.078 453.246 218.269 462.56 212.893C471.874 207.514 475.065 195.605 469.687 186.291Z" fill="#E80054"/>
<path d="M469.687 186.291L418.541 97.7031C419.241 105.54 415.477 113.441 408.215 117.634C399.964 122.396 389.826 120.869 383.303 114.56L435.96 205.765C441.337 215.078 453.246 218.269 462.56 212.893C471.874 207.514 475.065 195.605 469.687 186.291Z" fill="#E80054"/>
<path d="M341.156 2.61151C331.842 7.98905 328.651 19.8987 334.028 29.2122L344.519 47.3836C350.853 53.6995 360.847 55.2787 368.964 50.5937C376.856 46.0373 380.527 36.9773 378.605 28.5339L367.755 9.73952C362.379 0.425994 350.47 -2.76475 341.156 2.61151Z" fill="#FF7186"/>
<path d="M23.5879 266.881C150.766 280.749 156.887 151.268 151.534 83.3133C88.9035 126.21 42.5431 191.111 23.5879 266.881Z" fill="#73C3F9"/>
<path d="M636.541 271.503C622.624 212.05 591.88 159.083 549.613 117.872C509.429 170.478 440.591 287.307 636.541 271.503Z" fill="#73C3F9"/>
</svg>
